<?xml version="1.0" encoding="utf-8"?>
<svg width="131px" height="164px" viewBox="0 0 131 164" version="1.1" xmlns:xlink="http://www.w3.org/1999/xlink" xmlns="http://www.w3.org/2000/svg">
  <path d="M125 136.669L68.6661 162.96C66.3434 164.043 63.6611 164.043 61.3341 162.96L5.00068 136.669C1.95 135.244 0 132.18 0 128.813L0 8.66668C0 3.87834 3.87834 0 8.66668 0L121.334 0C126.122 0 130 3.87834 130 8.66668L130 128.813C130 132.18 128.05 135.244 125 136.669L125 136.669Z" id="Shape" fill="#424242" fill-rule="evenodd" stroke="none" />
  <path d="M47.3628 0L0.554073 0C-0.0395902 0 -0.217259 0.810338 0.324409 1.053L23.2391 11.4834C23.3821 11.5484 23.5468 11.5484 23.6898 11.4877L47.5795 1.05734C48.1298 0.819 47.9608 0 47.3628 0L47.3628 0Z" transform="translate(40.99402 134.3335)" id="Shape" fill="#FFFFFF" fill-rule="evenodd" stroke="none" />
  <path d="M0 59.4404L18.772 59.4404L18.772 50.0544L9.38602 50.0544L9.38602 34.411L18.772 34.411L18.772 25.0293L9.38602 25.0293L9.38602 9.38601L18.772 9.38601L18.772 0L0 0L0 59.4404Z" transform="translate(14.945679 21.666748)" id="Polygon" fill="#FFFFFF" fill-rule="evenodd" stroke="none" />
  <path d="M0 0L9.38598 0L9.38598 59.4404L0 59.4404L0 0Z" transform="translate(71.25745 21.666748)" id="Rectangle" fill="#FFFFFF" fill-rule="evenodd" stroke="none" />
  <path d="M9.38167 40.6683L14.378 40.6683C21.502 40.6683 25.025 37.1063 25.025 29.8957L25.025 11.44C25.025 3.783 21.2637 0 13.6457 0L10.4867 0L0 0L0 59.4403L9.38601 59.4403L9.38601 40.6683L9.38167 40.6683L9.38167 40.6683ZM9.38171 9.38599L12.5104 9.38599C14.2394 9.38599 15.6391 10.7857 15.6391 12.5147L15.6391 28.158C15.6391 29.887 14.2394 31.2867 12.5104 31.2867L9.38171 31.2867L9.38171 9.38599L9.38171 9.38599Z" transform="translate(39.975098 21.666748)" id="Shape" fill="#FFFFFF" fill-rule="evenodd" stroke="none" />
  <path d="M28.1537 48.3384L28.1537 37.5441L18.7677 37.5441L18.7677 46.3841C18.7677 48.8931 17.5587 50.0587 15.0497 50.0587L13.1906 50.0587C10.5863 50.0587 9.38165 48.8931 9.38165 46.3841L9.38165 28.158L9.38165 16.185L9.38165 12.5147C9.38165 10.7857 10.7813 9.38601 12.5103 9.38601L15.639 9.38601C17.368 9.38601 18.7676 10.7857 18.7676 12.5147L18.7676 15.6434L18.7676 21.9007L28.1536 21.9007L28.1536 11.336C28.1536 3.69201 24.3533 0 16.4753 0L11.7693 0C3.89567 0 0 3.77867 0 11.427L0 48.0221C0 55.6661 3.89567 59.4447 11.7693 59.4447L16.536 59.4447C24.31 59.4447 28.1537 55.7701 28.1537 48.3384L28.1537 48.3384Z" transform="translate(86.90076 21.662354)" id="Shape" fill="#FFFFFF" fill-rule="evenodd" stroke="none" />
  <path d="M16.1027 12.8224L16.0767 12.5624L16.0247 12.3024L15.9727 12.0424L15.9207 11.8084L15.8427 11.5744L15.7647 11.3447L15.665 11.1367L15.535 10.9027L15.405 10.6947L15.249 10.4564L15.0973 10.2527L14.9153 10.0707L14.7333 9.86269L14.5253 9.68069L14.3217 9.4987L14.1137 9.36869L13.9057 9.21269L13.702 9.08269L13.468 8.9527L13.234 8.82269L12.974 8.69269L12.714 8.59303L12.4583 8.46302L12.1723 8.35902L11.9427 8.28102L11.7087 8.20303L11.4487 8.12503L11.219 8.04702L10.959 7.96902L10.7033 7.89102L10.4433 7.83903L10.1573 7.76102L9.89733 7.68302L9.61567 7.63102L9.32966 7.55302L9.048 7.47502L8.76199 7.39702L8.502 7.34502L8.27233 7.26702L8.03833 7.21502L7.83033 7.14135L7.62666 7.08935L7.31466 6.98102L7.02867 6.88135L6.773 6.77302L6.56499 6.64302L6.33099 6.51302L6.15334 6.33101L6.04933 6.17935L5.91934 5.89335L5.89333 5.55535L5.89333 5.50335L5.91934 5.24335L6.02333 5.00935L6.17499 4.77535L6.409 4.56734L6.591 4.46334L6.799 4.35934L7.02867 4.30734L7.28866 4.25534L7.57034 4.20334L7.88233 4.20334L8.14234 4.20334L8.37199 4.22935L8.632 4.25534L8.892 4.28134L9.14766 4.33335L9.40767 4.38968L9.66766 4.43735L9.92333 4.51535L10.1833 4.59335L10.4693 4.67134L10.673 4.77535L10.907 4.85334L11.1107 4.95735L11.349 5.06135L11.5527 5.16535L11.7867 5.26935L11.9947 5.39935L12.2287 5.50335L12.4323 5.65935L12.6403 5.78935L12.87 5.91935L13.078 6.07102L13.234 5.86301L13.364 5.65935L13.5157 5.45135L13.6717 5.24335L13.8277 5.00935L13.9577 4.80135L14.1137 4.59335L14.2697 4.38968L14.3997 4.17734L14.5513 3.96934L14.7073 3.76135L14.8373 3.55334L14.989 3.32368L15.145 3.11134L15.301 2.90767L15.431 2.69967L15.587 2.49167L15.379 2.33567L15.1753 2.17967L14.9673 2.02367L14.7593 1.89367L14.5253 1.73767L14.3217 1.60767L14.0877 1.47767L13.8537 1.34767L13.6457 1.24367L13.4117 1.11367L13.156 1.00967L12.9263 0.909999L12.6923 0.801667L12.4583 0.723668L12.1983 0.619667L11.9687 0.572002L11.7347 0.489664L11.4747 0.411665L11.2407 0.364L10.985 0.311995L10.7293 0.259999L10.491 0.208002L10.2353 0.151667L9.95367 0.129995L9.69366 0.0779987L9.40767 0.0519964L9.14766 0.0519964L8.866 0.0216631L8.57999 0L8.29833 0L8.01233 0L7.73067 0L7.47066 0L7.215 0.0216631L6.955 0.0519964L6.69501 0.0779987L6.435 0.104001L6.20533 0.151667L5.94534 0.208002L5.71133 0.259999L5.47733 0.311995L5.27366 0.364L5.03967 0.441998L4.77967 0.541668L4.52399 0.619667L4.29001 0.723668L4.06033 0.853663L3.82633 0.962004L3.59233 1.08767L3.38432 1.21767L3.18067 1.37367L2.97267 1.52967L2.79067 1.65967L2.587 1.84167L2.405 2.04967L2.223 2.23167L2.041 2.43967L1.88501 2.64768L1.73334 2.85567L1.60333 3.08967L1.47333 3.32368L1.37367 3.55334L1.26533 3.79168L1.16567 4.02134L1.11367 4.25534L1.03566 4.48935L0.983671 4.72335L0.931667 4.95735L0.905665 5.21734L0.879671 5.45135L0.853669 5.71135L0.853669 5.97135L0.853669 6.02335L0.853669 6.30935L0.879671 6.59102L0.905665 6.85102L0.931667 7.11102L0.983671 7.34502L1.03566 7.60502L1.11367 7.81302L1.18733 8.04702L1.26533 8.25502L1.37367 8.43702L1.50367 8.66669L1.62933 8.8747L1.75933 9.0567L1.91101 9.2387L2.07134 9.4207L2.249 9.6027L2.431 9.7847L2.60867 9.94069L2.81667 10.0707L3.02467 10.2267L3.25866 10.3567L3.46666 10.4867L3.72234 10.6167L3.95634 10.7467L4.212 10.8464L4.472 10.9547L4.73199 11.0544L5.01367 11.1627L5.24766 11.2364L5.47733 11.3144L5.71133 11.3967L5.96699 11.4444L6.20533 11.5267L6.461 11.6047L6.72099 11.6524L6.981 11.7347L7.23667 11.7824L7.52266 11.8647L7.78267 11.9124L8.06433 11.9947L8.32434 12.0424L8.57999 12.1204L8.814 12.1724L9.048 12.2504L9.256 12.3024L9.43367 12.3544L9.74567 12.4844L10.0057 12.5884L10.2353 12.6924L10.4433 12.7964L10.6513 12.9524L10.829 13.1084L10.959 13.2904L11.063 13.546L11.089 13.858L11.089 13.9144L11.063 14.1744L10.985 14.404L10.881 14.6164L10.7293 14.794L10.5213 14.9544L10.3393 15.054L10.1313 15.132L9.89733 15.184L9.66766 15.236L9.40767 15.288L9.12599 15.314L8.814 15.314L8.55399 15.314L8.27233 15.288L8.01233 15.288L7.75234 15.236L7.47066 15.2101L7.215 15.158L6.955 15.106L6.69501 15.054L6.461 14.976L6.20533 14.898L5.94534 14.82L5.71133 14.716L5.47733 14.638L5.24766 14.534L5.01367 14.4344L4.77967 14.326L4.576 14.196L4.34199 14.0964L4.13399 13.9664L3.90434 13.806L3.69633 13.676L3.46666 13.5244L3.25866 13.3684L3.02467 13.2124L2.81667 13.0564L2.66066 13.2644L2.48301 13.4464L2.32699 13.6544L2.14499 13.858L1.989 14.0444L1.83733 14.248L1.65533 14.456L1.50367 14.638L1.31734 14.846L1.16567 15.028L0.983671 15.236L0.827666 15.444L0.676 15.626L0.494001 15.834L0.338004 16.0421L0.155997 16.2241L0 16.4277L0.208001 16.6141L0.38567 16.7657L0.593671 16.926L0.801664 17.0777L1.00967 17.2337L1.21333 17.3897L1.42133 17.5197L1.62933 17.6497L1.86333 17.7797L2.07134 17.9097L2.30099 18.0397L2.535 18.1437L2.769 18.2737L2.99867 18.3777L3.23266 18.4817L3.48833 18.5814L3.72234 18.6594L3.98233 18.7417L4.212 18.8414L4.472 18.9194L4.73199 19.0017L4.96167 19.0494L5.22167 19.1274L5.47733 19.1794L5.73734 19.2314L5.99733 19.2834L6.25733 19.3397L6.51734 19.3614L6.773 19.4134L7.05466 19.4394L7.31466 19.4697L7.57034 19.4914L7.85633 19.4914L8.11633 19.5174L8.37199 19.5174L8.658 19.5174L8.94399 19.5174L9.19967 19.5174L9.45966 19.4914L9.74567 19.4697L10.0057 19.4394L10.2353 19.4134L10.491 19.3874L10.751 19.3397L10.985 19.2834L11.219 19.2314L11.4747 19.1794L11.7087 19.1014L11.9687 19.0234L12.2287 18.9497L12.4843 18.8414L12.7443 18.7417L12.974 18.6117L13.208 18.5077L13.442 18.3777L13.6457 18.2217L13.8537 18.0917L14.0617 17.9357L14.2393 17.7797L14.4473 17.5977L14.6033 17.4461L14.7853 17.2597L14.937 17.0777L15.067 16.8741L15.223 16.6661L15.353 16.4581L15.483 16.2501L15.587 16.016L15.6867 15.808L15.795 15.574L15.873 15.314L15.9207 15.08L15.9987 14.82L16.0507 14.56L16.0767 14.274L16.1027 14.0184L16.1287 13.7324L16.1287 13.4464L16.1287 13.3944L16.1287 13.1084L16.1027 12.8224Z" transform="translate(98.704834 96.35181)" id="Polygon" fill="#FFFFFF" fill-rule="evenodd" stroke="none" />
  <path d="M14.5513 14.612L14.2957 14.612L14.0357 14.612L13.78 14.612L13.52 14.612L13.26 14.612L13.0043 14.612L12.7443 14.612L12.4583 14.612L12.1983 14.612L11.9427 14.612L11.687 14.612L11.4227 14.612L11.167 14.612L10.9113 14.612L10.6513 14.612L10.3913 14.612L10.1357 14.612L9.87567 14.612L9.61566 14.612L9.35566 14.612L9.1 14.612L8.84 14.612L8.58433 14.612L8.32433 14.612L8.06433 14.612L7.80866 14.612L7.54867 14.612L7.26267 14.612L7.007 14.612L6.747 14.612L6.487 14.612L6.23133 14.612L5.97133 14.612L5.71133 14.612L5.45567 14.612L5.2 14.612L4.94 14.612L4.94 14.352L4.94 14.066L4.94 13.806L4.94 13.546L4.94 13.2643L4.94 13.0043L4.94 12.7443L4.94 12.4583L4.94 12.1983L4.94 11.9383L4.94 11.6523L4.94 11.3923L5.2 11.3923L5.45567 11.3923L5.71133 11.3923L5.97133 11.3923L6.23133 11.3923L6.487 11.3923L6.747 11.3923L7.007 11.3923L7.24099 11.3923L7.49666 11.3923L7.75667 11.3923L8.01233 11.3923L8.27233 11.3923L8.53233 11.3923L8.78799 11.3923L9.048 11.3923L9.308 11.3923L9.568 11.3923L9.82366 11.3923L10.0837 11.3923L10.3437 11.3923L10.5993 11.3923L10.855 11.3923L11.115 11.3923L11.375 11.3923L11.6307 11.3923L11.8647 11.3923L12.1247 11.3923L12.3847 11.3923L12.6403 11.3923L12.9003 11.3923L13.156 11.3923L13.416 11.3923L13.6717 11.3923L13.9317 11.3923L13.9317 11.1323L13.9317 10.9026L13.9317 10.6426L13.9317 10.3826L13.9317 10.1443L13.9317 9.88864L13.9317 9.62864L13.9317 9.36864L13.9317 9.13464L13.9317 8.87464L13.9317 8.61464L13.9317 8.38064L13.9317 8.12497L13.9317 7.86498L13.9317 7.63098L13.9317 7.37098L13.6717 7.37098L13.416 7.37098L13.156 7.37098L12.9003 7.37098L12.6403 7.37098L12.3847 7.37098L12.1247 7.37098L11.8647 7.37098L11.6307 7.37098L11.375 7.37098L11.115 7.37098L10.855 7.37098L10.5993 7.37098L10.3437 7.37098L10.0837 7.37098L9.82366 7.37098L9.568 7.37098L9.308 7.37098L9.048 7.37098L8.78799 7.37098L8.53233 7.37098L8.27233 7.37098L8.01233 7.37098L7.75667 7.37098L7.49666 7.37098L7.24099 7.37098L7.007 7.37098L6.747 7.37098L6.487 7.37098L6.23133 7.37098L5.97133 7.37098L5.71133 7.37098L5.45567 7.37098L5.2 7.37098L4.94 7.37098L4.94 7.11098L4.94 6.85098L4.94 6.59098L4.94 6.33098L4.94 6.07098L4.94 5.81099L4.94 5.58132L4.94 5.32132L4.94 5.06132L4.94 4.80133L4.94 4.54132L4.94 4.28132L5.2 4.28132L5.45567 4.28132L5.71133 4.28132L5.97133 4.28132L6.23133 4.28132L6.487 4.28132L6.721 4.28132L6.981 4.28132L7.24099 4.28132L7.49666 4.28132L7.75667 4.28132L8.01233 4.28132L8.27233 4.28132L8.53233 4.28132L8.78799 4.28132L9.048 4.28132L9.308 4.28132L9.568 4.28132L9.82366 4.28132L10.0533 4.28132L10.3133 4.28132L10.5733 4.28132L10.8333 4.28132L11.089 4.28132L11.349 4.28132L11.609 4.28132L11.8647 4.28132L12.1247 4.28132L12.3847 4.28132L12.6403 4.28132L12.9003 4.28132L13.156 4.28132L13.39 4.28132L13.65 4.28132L13.9057 4.28132L14.1657 4.28132L14.4257 4.28132L14.6813 4.28132L14.9413 4.28132L14.9413 4.02133L14.9413 3.78732L14.9413 3.52733L14.9413 3.26733L14.9413 3.01166L14.9413 2.77766L14.9413 2.51766L14.9413 2.25766L14.9413 2.02366L14.9413 1.76367L14.9413 1.50366L14.9413 1.26967L14.9413 1.00967L14.9413 0.749666L14.9413 0.489669L14.9413 0.260005L14.9413 0L14.6813 0L14.4257 0L14.1657 0L13.9057 0L13.65 0L13.39 0L13.13 0L12.8743 0L12.6143 0L12.3587 0L12.0987 0L11.8387 0L11.5787 0L11.323 0L11.089 0L10.8333 0L10.5733 0L10.3133 0L10.0533 0L9.79766 0L9.53766 0L9.282 0L9.022 0L8.762 0L8.50633 0L8.24633 0L7.99066 0L7.73066 0L7.47067 0L7.215 0L6.95499 0L6.695 0L6.43933 0L6.17933 0L5.91933 0L5.65933 0L5.40366 0L5.14366 0L4.888 0L4.628 0L4.37233 0L4.11233 0L3.85667 0L3.61834 0L3.36267 0L3.10266 0L2.847 0L2.587 0L2.33133 0L2.07133 0L1.81134 0L1.55567 0L1.29566 0L1.03567 0L0.77567 0L0.515664 0L0.259998 0L0 0L0 0.260005L0 0.520002L0 0.775668L0 1.03566L0 1.29567L0 1.55567L0 1.81566L0 2.07566L0 2.33567L0 2.59566L0 2.85133L0 3.11133L0 3.37132L0 3.63133L0 3.89132L0 4.15132L0 4.41133L0 4.67132L0 4.90532L0 5.16098L0 5.42099L0 5.68098L0 5.94098L0 6.20099L0 6.46098L0 6.72098L0 6.98098L0 7.24098L0 7.50098L0 7.76098L0 8.02098L0 8.28098L0 8.53664L0 8.79664L0 9.05664L0 9.31664L0 9.57664L0 9.83664L0 10.0966L0 10.3566L0 10.6166L0 10.8723L0 11.1323L0 11.3923L0 11.6523L0 11.9123L0 12.1723L0 12.4323L0 12.6923L0 12.9523L0 13.2123L0 13.4723L0 13.7323L0 13.9923L0 14.222L0 14.482L0 14.742L0 15.002L0 15.262L0 15.522L0 15.7819L0 16.0419L0 16.302L0 16.562L0 16.8219L0 17.0776L0 17.3376L0 17.5976L0 17.8576L0 18.1176L0 18.3776L0 18.6376L0 18.8976L0.259998 18.8976L0.515664 18.8976L0.77567 18.8976L1.03567 18.8976L1.29566 18.8976L1.55567 18.8976L1.81134 18.8976L2.07133 18.8976L2.33133 18.8976L2.613 18.8976L2.86867 18.8976L3.12867 18.8976L3.38866 18.8976L3.64867 18.8976L3.90434 18.8976L4.16433 18.8976L4.42433 18.8976L4.68 18.8976L4.94 18.8976L5.2 18.8976L5.45567 18.8976L5.71133 18.8976L5.97133 18.8976L6.23133 18.8976L6.487 18.8976L6.747 18.8976L7.007 18.8976L7.26267 18.8976L7.54867 18.8976L7.80866 18.8976L8.06433 18.8976L8.32433 18.8976L8.58433 18.8976L8.84 18.8976L9.1 18.8976L9.35566 18.8976L9.61566 18.8976L9.87567 18.8976L10.1357 18.8976L10.3913 18.8976L10.6513 18.8976L10.9113 18.8976L11.167 18.8976L11.4227 18.8976L11.687 18.8976L11.9427 18.8976L12.1983 18.8976L12.4583 18.8976L12.7443 18.8976L13.0043 18.8976L13.26 18.8976L13.52 18.8976L13.78 18.8976L14.0357 18.8976L14.2957 18.8976L14.5513 18.8976L14.8113 18.8976L15.0713 18.8976L15.0713 18.6376L15.0713 18.3993L15.0713 18.1393L15.0713 17.8793L15.0713 17.6236L15.0713 17.3939L15.0713 17.134L15.0713 16.874L15.0713 16.6356L15.0713 16.3756L15.0713 16.1156L15.0713 15.886L15.0713 15.626L15.0713 15.366L15.0713 15.106L15.0713 14.872L15.0713 14.612L14.8113 14.612L14.5513 14.612Z" transform="translate(81.86975 96.66382)" id="Polygon" fill="#FFFFFF" fill-rule="evenodd" stroke="none" />
  <path d="M19.2573 0L19.0233 0L18.7633 0L18.5077 0L18.2476 0L18.0137 0L17.7537 0L17.498 0L17.2423 0L17.0083 0L16.7483 0L16.4883 0L16.2327 0L15.9987 0L15.743 0L15.483 0L15.223 0L14.9933 0L14.7333 0L14.4777 0L14.3477 0.208001L14.2177 0.437673L14.0617 0.645665L13.9317 0.879668L13.8017 1.08767L13.6717 1.32166L13.52 1.52533L13.39 1.76367L13.26 1.96733L13.13 2.17533L12.974 2.40933L12.8483 2.61733L12.7183 2.85133L12.5883 3.05933L12.4323 3.28899L12.3023 3.49699L12.1723 3.70499L12.0423 3.93899L11.9123 4.14699L11.7607 4.37665L11.6307 4.58465L11.5007 4.81866L11.375 5.02665L11.2147 5.26065L11.089 5.46432L10.959 5.67232L10.829 5.90632L10.6773 6.11432L10.5473 6.34831L10.4173 6.55631L10.2873 6.78598L10.1313 6.99832L10.0013 7.22798L9.87133 7.43598L9.74566 7.22798L9.61566 6.99832L9.45965 6.78598L9.33399 6.55631L9.20399 6.34831L9.07399 6.11432L8.94399 5.90632L8.78799 5.67232L8.65799 5.46432L8.52799 5.26065L8.40232 5.02665L8.27232 4.81866L8.11633 4.58465L7.98632 4.37665L7.85633 4.14699L7.73066 3.93899L7.60066 3.70499L7.44466 3.49699L7.31466 3.28899L7.18466 3.05933L7.05466 2.85133L6.90299 2.61733L6.77299 2.40933L6.64299 2.17533L6.51299 1.96733L6.38299 1.76367L6.23133 1.52533L6.10133 1.32166L5.97132 1.08767L5.84566 0.879668L5.71133 0.645665L5.55533 0.437673L5.42533 0.208001L5.29966 0L5.03966 0L4.784 0L4.54999 0L4.29 0L4.02999 0L3.77432 0L3.54033 0L3.28466 0L3.02466 0L2.76466 0L2.53499 0L2.275 0L2.01933 0L1.75933 0L1.52966 0L1.26966 0L1.00967 0L0.749659 0L0.519995 0L0.259998 0L0 0L0 0.260005L0 0.520002L0 0.775668L0 1.03566L0 1.29567L0 1.55567L0 1.81566L0 2.07566L0 2.33567L0 2.59566L0 2.85133L0 3.11133L0 3.37132L0 3.63133L0 3.89132L0 4.15132L0 4.41133L0 4.67132L0 4.90532L0 5.16098L0 5.42099L0 5.68098L0 5.94098L0 6.20099L0 6.46098L0 6.72098L0 6.98098L0 7.24098L0 7.50098L0 7.76098L0 8.02098L0 8.28098L0 8.53664L0 8.79664L0 9.05664L0 9.31664L0 9.57664L0 9.83664L0 10.0966L0 10.3566L0 10.6166L0 10.8723L0 11.1323L0 11.3923L0 11.6523L0 11.9123L0 12.1723L0 12.4323L0 12.6923L0 12.9523L0 13.2123L0 13.4723L0 13.7323L0 13.9923L0 14.222L0 14.482L0 14.742L0 15.002L0 15.262L0 15.522L0 15.7819L0 16.0419L0 16.302L0 16.562L0 16.8219L0 17.0776L0 17.3376L0 17.5976L0 17.8576L0 18.1176L0 18.3776L0 18.6376L0 18.8976L0.259998 18.8976L0.519995 18.8976L0.775662 18.8976L1.03566 18.8976L1.29133 18.8976L1.55133 18.8976L1.81133 18.8976L2.067 18.8976L2.32699 18.8976L2.587 18.8976L2.84267 18.8976L3.10266 18.8976L3.36266 18.8976L3.62266 18.8976L3.87832 18.8976L4.13833 18.8976L4.394 18.8976L4.65399 18.8976L4.91399 18.8976L4.91399 18.6376L4.91399 18.3776L4.91399 18.1176L4.91399 17.8576L4.91399 17.5933L4.91399 17.3333L4.91399 17.0733L4.91399 16.8133L4.91399 16.5576L4.91399 16.2976L4.91399 16.0636L4.91399 15.8036L4.91399 15.5436L4.91399 15.2836L4.91399 15.0236L4.91399 14.7636L4.91399 14.5036L4.91399 14.2436L4.91399 13.9836L4.91399 13.7236L4.91399 13.4636L4.91399 13.208L4.91399 12.9436L4.91399 12.6836L4.91399 12.4236L4.91399 12.1636L4.91399 11.9036L4.91399 11.6436L4.91399 11.3836L4.91399 11.1236L4.91399 10.8636L4.91399 10.6036L4.91399 10.374L4.91399 10.114L4.91399 9.84964L4.91399 9.58964L4.91399 9.32964L4.91399 9.06964L4.91399 8.80964L4.91399 8.54965L4.91399 8.29398L4.91399 8.03397L4.91399 7.77398L5.06566 7.98198L5.19566 8.21597L5.35166 8.42397L5.48166 8.65798L5.63333 8.86598L5.76333 9.09997L5.91933 9.30797L6.04933 9.54198L6.20533 9.74564L6.33099 9.98397L6.48699 10.192L6.61699 10.426L6.77299 10.634L6.90299 10.868L7.05466 11.0716L7.18466 11.31L7.34065 11.518L7.49666 11.752L7.62666 11.96L7.77833 12.194L7.90832 12.402L8.06866 12.636L8.19432 12.844L8.35033 13.078L8.47599 13.286L8.63633 13.52L8.76632 13.728L8.91799 13.962L9.04799 14.17L9.20399 14.404L9.33399 14.612L9.48566 14.846L9.61566 15.054L9.77166 15.288L9.87133 15.288L10.0013 15.08L10.1573 14.846L10.2873 14.638L10.4433 14.43L10.569 14.196L10.7293 13.988L10.855 13.78L10.985 13.546L11.141 13.338L11.271 13.13L11.427 12.922L11.557 12.688L11.7087 12.48L11.8387 12.272L11.9687 12.038L12.1247 11.83L12.2547 11.622L12.4063 11.388L12.5363 11.18L12.6923 10.972L12.8223 10.738L12.9523 10.53L13.104 10.322L13.234 10.088L13.39 9.87564L13.52 9.67197L13.6717 9.46397L13.8017 9.22997L13.9317 9.02197L14.0877 8.80964L14.2177 8.57998L14.3693 8.37198L14.4993 8.16398L14.6553 7.92997L14.7853 7.72198L14.7853 7.98198L14.7853 8.24198L14.7853 8.50197L14.7853 8.76198L14.7853 9.02197L14.7853 9.27764L14.7853 9.53764L14.7853 9.79764L14.7853 10.062L14.7853 10.322L14.7853 10.582L14.7853 10.8376L14.7853 11.0976L14.7853 11.3576L14.7853 11.622L14.7853 11.882L14.7853 12.1376L14.7853 12.3976L14.7853 12.6576L14.7853 12.9176L14.7853 13.1776L14.7853 13.4376L14.7853 13.6976L14.7853 13.9576L14.7853 14.2176L14.7853 14.4776L14.7853 14.7376L14.7853 14.9976L14.7853 15.2576L14.7853 15.5176L14.7853 15.7776L14.7853 16.0376L14.7853 16.2976L14.7853 16.5576L14.7853 16.8133L14.7853 17.0733L14.7853 17.3333L14.7853 17.5933L14.7853 17.8576L14.7853 18.1176L14.7853 18.3776L14.7853 18.6376L14.7853 18.8976L15.0453 18.8976L15.301 18.8976L15.561 18.8976L15.8427 18.8976L16.1027 18.8976L16.3583 18.8976L16.6183 18.8976L16.8783 18.8976L17.1383 18.8976L17.42 18.8976L17.68 18.8976L17.94 18.8976L18.1957 18.8976L18.4557 18.8976L18.7113 18.8976L18.9973 18.8976L19.2573 18.8976L19.513 18.8976L19.773 18.8976L19.773 18.6376L19.773 18.3776L19.773 18.1176L19.773 17.8576L19.773 17.5976L19.773 17.3376L19.773 17.0776L19.773 16.8219L19.773 16.562L19.773 16.302L19.773 16.0419L19.773 15.7819L19.773 15.522L19.773 15.262L19.773 15.002L19.773 14.742L19.773 14.482L19.773 14.222L19.773 13.9923L19.773 13.7323L19.773 13.4723L19.773 13.2123L19.773 12.9523L19.773 12.6923L19.773 12.4323L19.773 12.1723L19.773 11.9123L19.773 11.6523L19.773 11.3923L19.773 11.1323L19.773 10.8723L19.773 10.6166L19.773 10.3566L19.773 10.0966L19.773 9.83664L19.773 9.57664L19.773 9.31664L19.773 9.05664L19.773 8.79664L19.773 8.53664L19.773 8.28098L19.773 8.02098L19.773 7.76098L19.773 7.50098L19.773 7.24098L19.773 6.98098L19.773 6.72098L19.773 6.46098L19.773 6.20099L19.773 5.94098L19.773 5.68098L19.773 5.42099L19.773 5.16098L19.773 4.90532L19.773 4.67132L19.773 4.41133L19.773 4.15132L19.773 3.89132L19.773 3.63133L19.773 3.37132L19.773 3.11133L19.773 2.85133L19.773 2.59566L19.773 2.33567L19.773 2.07566L19.773 1.81566L19.773 1.55567L19.773 1.29567L19.773 1.03566L19.773 0.775668L19.773 0.520002L19.773 0.260005L19.773 0L19.513 0L19.2573 0Z" transform="translate(58.283447 96.66382)" id="Polygon" fill="#FFFFFF" fill-rule="evenodd" stroke="none" />
  <path d="M20.6007 18.512L20.4967 18.278L20.4187 18.018L20.3147 17.784L20.2107 17.55L20.1067 17.316L20.0026 17.082L19.8986 16.848L19.7946 16.588L19.6906 16.354L19.6126 16.12L19.5086 15.886L19.4047 15.652L19.3007 15.418L19.1923 15.1493L19.0883 14.9153L18.9843 14.6813L18.8803 14.4473L18.8067 14.2133L18.7027 13.9793L18.5987 13.7193L18.4947 13.4853L18.3907 13.2513L18.2867 13.0173L18.1826 12.7833L18.0787 12.5493L18.0007 12.2893L17.8967 12.0553L17.7927 11.8213L17.6887 11.5873L17.5846 11.3533L17.4806 11.1193L17.3766 10.8593L17.2726 10.6253L17.1946 10.3913L17.0906 10.1573L16.9866 9.92329L16.8826 9.68929L16.7786 9.42929L16.7137 9.23867L16.6097 9.00467L16.5057 8.77067L16.432 8.53666L16.328 8.30266L16.224 8.06866L16.12 7.80866L16.016 7.57466L15.912 7.34065L15.808 7.10665L15.704 6.87265L15.626 6.63864L15.522 6.37865L15.418 6.14464L15.314 5.91064L15.21 5.67664L15.106 5.44263L15.002 5.20863L14.898 4.94863L14.82 4.71463L14.716 4.48063L14.612 4.24662L14.508 4.01262L14.404 3.77862L14.3 3.51862L14.196 3.28462L14.092 3.05061L14.0183 2.81661L13.9143 2.58261L13.8103 2.34869L13.7063 2.08869L13.6023 1.85469L13.4983 1.62068L13.3943 1.38668L13.2903 1.15268L13.247 0.962007L13.143 0.70201L13.039 0.468006L12.935 0.234003L12.831 0L12.571 0L12.337 0L12.0423 0L11.7867 0L11.531 0L11.297 0L11.037 0L10.777 0L10.5213 0L10.2873 0L10.0273 0L9.76733 0L9.52033 0L9.28633 0L9.02633 0L8.77066 0L8.51499 0L8.27666 0L8.02099 0L7.91699 0.234003L7.81299 0.468006L7.70899 0.70201L7.63099 0.962007L7.52699 1.19169L7.42299 1.42569L7.31899 1.65969L7.21499 1.8937L7.11099 2.1277L7.00699 2.3877L6.90299 2.6217L6.82932 2.8557L6.72532 3.08971L6.62132 3.32371L6.51732 3.55771L6.41332 3.81771L6.30932 4.05171L6.20532 4.28572L6.10132 4.51972L6.02332 4.75372L5.91932 4.98773L5.81532 5.24772L5.71132 5.48173L5.60732 5.71573L5.50331 5.94973L5.39931 6.18374L5.29531 6.41774L5.21732 6.67774L5.11331 6.91174L5.00931 7.14574L4.90531 7.37975L4.80131 7.61375L4.69731 7.84775L4.59331 8.10775L4.48931 8.34175L4.41131 8.57576L4.30731 8.80976L4.20331 9.04376L4.09931 9.27777L3.99531 9.51177L3.89131 9.77177L3.78731 10.0058L3.68331 10.2398L3.60531 10.4738L3.50131 10.7078L3.39731 10.9418L3.29331 11.2018L3.18931 11.4358L3.08531 11.6698L2.98131 11.9038L2.8773 12.1378L2.79931 12.3718L2.69531 12.6318L2.59131 12.8658L2.4873 13.0998L2.3833 13.3338L2.2793 13.5678L2.1753 13.8018L2.0713 14.0618L1.96297 14.2915L1.85897 14.5255L1.75497 14.7595L1.65097 14.9935L1.54697 15.2275L1.44297 15.4875L1.40834 15.652L1.3 15.886L1.22201 16.12L1.11801 16.354L1.014 16.588L0.910004 16.848L0.806003 17.082L0.702002 17.316L0.598002 17.55L0.494001 17.784L0.416003 18.018L0.312002 18.278L0.208001 18.512L0.104001 18.746L0 18.98L0.255667 18.98L0.515664 18.98L0.771331 18.98L1.03133 18.98L1.31733 18.98L1.57299 18.98L1.82866 18.98L2.08866 18.98L2.34866 18.98L2.60432 18.98L2.85999 18.98L3.11999 18.98L3.37998 18.98L3.63565 18.98L3.92165 18.98L4.17732 18.98L4.43731 18.98L4.69298 18.98L4.94865 18.98L5.20431 18.98L5.30831 18.746L5.38631 18.512L5.49031 18.278L5.59431 18.018L5.67231 17.784L5.77631 17.55L5.88031 17.316L5.95831 17.082L6.06231 16.848L6.16631 16.614L6.23998 16.38L6.34398 16.12L6.44798 15.886L6.52598 15.652L6.62998 15.418L6.88565 15.418L7.14565 15.418L7.40564 15.418L7.66131 15.418L7.89531 15.418L8.15098 15.418L8.40665 15.418L8.66231 15.418L8.92231 15.418L9.18231 15.418L9.43797 15.418L9.69366 15.418L9.95366 15.418L10.2137 15.418L10.4477 15.418L10.7033 15.418L10.9633 15.418L11.219 15.418L11.492 15.418L11.752 15.418L12.0077 15.418L12.2676 15.418L12.5233 15.418L12.7833 15.418L13.0173 15.418L13.273 15.418L13.5286 15.418L13.7843 15.418L14.04 15.418L14.144 15.652L14.222 15.886L14.326 16.12L14.43 16.38L14.508 16.614L14.612 16.848L14.716 17.082L14.7896 17.316L14.8936 17.55L14.9977 17.784L15.0713 18.018L15.1753 18.278L15.2793 18.512L15.3573 18.746L15.4613 18.98L15.7213 18.98L15.977 18.98L16.211 18.98L16.4667 18.98L16.7267 18.98L16.9866 18.98L17.2423 18.98L17.4763 18.98L17.7363 18.98L17.9963 18.98L18.252 18.98L18.5076 18.98L18.7676 18.98L19.0016 18.98L19.2616 18.98L19.5173 18.98L19.7773 18.98L20.033 18.98L20.267 18.98L20.527 18.98L20.7826 18.98L20.6786 18.746L20.6007 18.512L20.6007 18.512ZM12.2807 11.4227L12.0207 11.4227L11.765 11.4227L11.505 11.4227L11.2493 11.4227L10.9937 11.4227L10.7337 11.4227L10.478 11.4227L10.244 11.4227L9.984 11.4227L9.724 11.4227L9.46834 11.4227L9.21267 11.4227L8.95267 11.4227L8.69267 11.4227L8.437 11.4227L8.177 11.4227L8.281 11.1887L8.359 10.9547L8.463 10.6947L8.567 10.4607L8.64067 10.2267L8.74467 9.99268L8.84867 9.73268L8.95267 9.49868L9.03067 9.26467L9.13467 9.03067L9.23867 8.79667L9.31234 8.53667L9.41634 8.30267L9.52034 8.06866L9.59834 7.83466L9.70234 7.60066L9.80634 7.34066L9.91034 7.10666L9.98401 6.87265L10.088 6.63865L10.192 6.37865L10.27 6.14465L10.374 5.91064L10.478 6.14465L10.556 6.37865L10.66 6.63865L10.764 6.87265L10.842 7.10666L10.946 7.34066L11.05 7.60066L11.128 7.83466L11.232 8.06866L11.336 8.30267L11.4097 8.53667L11.5223 8.79234L11.6003 9.02634L11.7043 9.26034L11.8083 9.49435L11.8863 9.72835L11.9903 9.98835L12.0943 10.2223L12.1723 10.4564L12.2763 10.6904L12.3803 10.9504L12.4583 11.1844L12.5623 11.4184L12.2807 11.4227L12.2807 11.4227L12.2807 11.4227Z" transform="translate(35.373047 96.5813)" id="Shape" fill="#FFFFFF" fill-rule="evenodd" stroke="none" />
  <path d="M17.7797 8.255L17.524 8.255L17.264 8.255L17.0084 8.255L16.7484 8.255L16.4884 8.255L16.2327 8.255L15.9727 8.255L15.7127 8.255L15.4527 8.255L15.1927 8.255L14.937 8.255L14.6814 8.255L14.4214 8.255L14.1614 8.255L13.9057 8.255L13.6457 8.255L13.3857 8.255L13.13 8.255L12.87 8.255L12.6144 8.255L12.3544 8.255L12.0944 8.255L11.8344 8.255L11.5787 8.255L11.3187 8.255L11.0587 8.255L10.803 8.255L10.543 8.255L10.2873 8.255L10.0273 8.255L9.76735 8.255L9.76735 8.515L9.76735 8.74466L9.76735 9.00467L9.76735 9.26466L9.76735 9.52466L9.76735 9.75867L9.76735 10.0187L9.76735 10.2787L9.76735 10.5387L9.76735 10.7683L9.76735 11.0283L9.76735 11.2883L9.76735 11.5483L9.76735 11.7867L9.76735 12.0467L10.0273 12.0467L10.2613 12.0467L10.5214 12.0467L10.777 12.0467L11.037 12.0467L11.2667 12.0467L11.5267 12.0467L11.7867 12.0467L12.0424 12.0467L12.2764 12.0467L12.532 12.0467L12.792 12.0467L13.052 12.0467L13.2817 12.0467L13.5417 12.0467L13.5417 12.3023L13.5417 12.5623L13.5417 12.8223L13.5417 13.0823L13.5417 13.3683L13.5417 13.6283L13.5417 13.8883L13.5417 14.1483L13.5417 14.4083L13.338 14.5383L13.1517 14.638L12.922 14.7463L12.714 14.846L12.4844 14.95L12.2503 15.0063L11.9947 15.08L11.7347 15.132L11.4747 15.184L11.219 15.21L10.933 15.236L10.647 15.262L10.3393 15.262L10.0533 15.262L9.76735 15.236L9.51168 15.21L9.25601 15.158L8.99601 15.106L8.73601 15.028L8.47601 14.95L8.24201 14.846L8.01235 14.7463L7.77835 14.638L7.57034 14.508L7.36668 14.378L7.15868 14.2263L6.95068 14.0703L6.77301 13.91L6.61268 13.728L6.43501 13.5503L6.27901 13.3683L6.12301 13.1603L5.99301 12.9523L5.86734 12.7443L5.73734 12.5103L5.63334 12.2763L5.52934 12.0163L5.45567 11.8083L5.37768 11.5787L5.32567 11.3447L5.26934 11.1063L5.21734 10.8767L5.19568 10.6167L5.16967 10.3827L5.14368 10.1227L5.14368 9.86267L5.14368 9.81066L5.14368 9.52466L5.16967 9.26466L5.19568 9.00467L5.24768 8.71867L5.29534 8.48899L5.34734 8.229L5.42534 7.969L5.52934 7.735L5.60734 7.501L5.71134 7.267L5.84134 7.06333L5.96701 6.825L6.09701 6.62133L6.22701 6.435L6.38301 6.23133L6.56501 6.045L6.72101 5.86733L6.89868 5.71133L7.08068 5.55533L7.26268 5.39933L7.47068 5.26933L7.67434 5.13933L7.88235 5.00933L8.11635 4.90533L8.34601 4.80133L8.58001 4.72333L8.81401 4.64533L9.04368 4.59334L9.30368 4.54133L9.53768 4.51533L9.79335 4.48934L10.0533 4.48934L10.3393 4.48934L10.621 4.51533L10.907 4.54133L11.167 4.56733L11.4227 4.61933L11.6827 4.67134L11.9167 4.72333L12.1464 4.80133L12.3804 4.87934L12.584 4.95733L12.792 5.06134L13 5.16534L13.2297 5.29533L13.442 5.42533L13.6457 5.55533L13.8537 5.68533L14.0574 5.84133L14.2654 5.97133L14.4734 6.15333L14.6814 6.305L14.8374 6.10133L15.015 5.915L15.171 5.71133L15.353 5.50333L15.5047 5.29533L15.6607 5.11333L15.8427 4.90533L15.9987 4.70167L16.1807 4.48934L16.3324 4.30733L16.4884 4.10367L16.6704 3.89133L16.822 3.71367L16.978 3.50566L17.16 3.29333L17.316 3.08967L17.498 2.90766L17.654 2.69967L17.446 2.54366L17.238 2.36167L17.03 2.20567L16.822 2.04966L16.6184 1.91967L16.4104 1.76366L16.1807 1.63367L15.9727 1.50367L15.743 1.37367L15.535 1.24367L15.301 1.13967L15.067 1.014L14.8374 0.905665L14.6034 0.801672L14.3694 0.702002L14.1397 0.624004L13.9274 0.541666L13.6977 0.494001L13.4637 0.416003L13.2297 0.363998L13 0.312002L12.766 0.260006L12.5104 0.20367L12.2503 0.156005L12.0163 0.130003L11.7347 0.0736675L11.4747 0.0520045L11.219 0.0520045L10.933 0.0260022L10.647 0L10.361 0L10.0793 0L9.82368 0L9.53768 0L9.27768 0.0260022L9.01768 0.0520045L8.76201 0.0736675L8.50201 0.104001L8.24201 0.156005L7.98635 0.181999L7.72634 0.234004L7.49668 0.312002L7.23668 0.363998L7.00268 0.442005L6.77301 0.494001L6.53901 0.593671L6.27901 0.671669L6.07534 0.753999L5.81534 0.884002L5.58134 0.983671L5.34734 1.092L5.11767 1.222L4.88367 1.352L4.64967 1.482L4.44601 1.612L4.238 1.73767L4.03001 1.89367L3.82201 2.02367L3.61834 2.17967L3.43634 2.33566L3.22834 2.51767L3.05067 2.67367L2.86867 2.85567L2.68667 3.03333L2.53067 3.21533L2.353 3.40166L2.197 3.58366L2.041 3.79166L1.885 3.99534L1.729 4.20334L1.599 4.41133L1.469 4.61933L1.34334 4.82733L1.21333 5.03533L1.08333 5.26933L0.983669 5.50333L0.879668 5.73734L0.771336 5.97133L0.671666 6.20534L0.567666 6.46533L0.489667 6.695L0.411668 6.95499L0.333666 7.19333L0.286 7.449L0.203667 7.709L0.156001 7.943L0.125668 8.20299L0.0736676 8.45866L0.0520004 8.74466L0.0259982 9.00467L0.0259982 9.26466L0 9.55066L0 9.81066L0 9.86267L0 10.1227L0 10.4087L0.0259982 10.6687L0.0520004 10.9287L0.0736676 11.1887L0.104001 11.4183L0.156001 11.6783L0.181999 11.9167L0.234 12.1723L0.311998 12.4063L0.363999 12.6663L0.437667 12.9003L0.489667 13.1343L0.593668 13.3683L0.671666 13.5763L0.771336 13.8103L0.879668 14.04L0.983669 14.2783L1.08333 14.508L1.21333 14.716L1.34334 14.95L1.469 15.158L1.599 15.366L1.755 15.574L1.885 15.782L2.041 15.964L2.197 16.172L2.353 16.3497L2.53067 16.536L2.71267 16.718L2.89467 16.8697L3.07667 17.056L3.25434 17.2077L3.43634 17.368L3.64434 17.5197L3.85234 17.6757L4.05601 17.8317L4.26401 17.9617L4.472 18.0917L4.70167 18.2217L4.90968 18.3517L5.14368 18.4817L5.37768 18.5813L5.60734 18.6897L5.84134 18.7937L6.09701 18.8933L6.33101 18.9713L6.56501 19.0753L6.79901 19.1533L7.05468 19.2053L7.28868 19.2833L7.54868 19.3353L7.77835 19.3917L8.03834 19.4393L8.29835 19.4913L8.55835 19.5217L8.81401 19.5433L9.06968 19.5693L9.35568 19.5953L9.61135 19.6213L9.87135 19.6213L10.1573 19.6213L10.439 19.6213L10.725 19.6213L11.0067 19.5953L11.2667 19.5693L11.5527 19.5433L11.8084 19.5217L12.0944 19.4913L12.3544 19.4653L12.6144 19.4133L12.87 19.3613L13.0997 19.3093L13.3597 19.2617L13.5937 19.1793L13.8537 19.1013L14.0834 19.0233L14.3174 18.9453L14.5514 18.8717L14.781 18.7633L15.041 18.6637L15.275 18.5597L15.535 18.4557L15.7647 18.3257L15.9987 18.2217L16.2327 18.0917L16.4624 17.9617L16.6964 17.8317L16.9 17.7017L17.108 17.5717L17.316 17.4157L17.524 17.2857L17.7277 17.1297L17.9097 16.9997L18.1177 16.848L18.2954 16.6877L18.2954 16.432L18.2954 16.172L18.2954 15.912L18.2954 15.678L18.2954 15.418L18.2954 15.158L18.2954 14.898L18.2954 14.638L18.2954 14.378L18.2954 14.1483L18.2954 13.8883L18.2954 13.6283L18.2954 13.3683L18.2954 13.1083L18.2954 12.8483L18.2954 12.5883L18.2954 12.3543L18.2954 12.0943L18.2954 11.8343L18.2954 11.5787L18.2954 11.3187L18.2954 11.0587L18.2954 10.7987L18.2954 10.5647L18.2954 10.3047L18.2954 10.0447L18.2954 9.78467L18.2954 9.52466L18.2954 9.26466L18.2954 9.03066L18.2954 8.77066L18.2954 8.515L18.2954 8.255L18.0397 8.255L17.7797 8.255Z" transform="translate(15.166748 96.299805)" id="Polygon" fill="#FFFFFF" fill-rule="evenodd" stroke="none" />
</svg>