<?xml version="1.0" encoding="utf-8"?>
<svg width="40px" height="40px" viewBox="0 0 40 40" version="1.1" xmlns:xlink="http://www.w3.org/1999/xlink" xmlns="http://www.w3.org/2000/svg">
  <g id="Steam-icon">
    <path d="M7.50001 0C3.35938 0 0 3.35938 0 7.50001L0 20.5289L7.78847 22.7885C9.21876 21.0217 11.3942 19.9039 13.8462 19.9039C13.9243 19.9039 14.0084 19.9039 14.0865 19.9039L18.3654 13.9423C18.3654 13.9063 18.3654 13.8822 18.3654 13.8462C18.3654 8.70193 22.5421 4.51923 27.6923 4.51923C32.8426 4.51923 37.0193 8.70193 37.0193 13.8462C37.0193 18.9964 32.8426 23.1731 27.6923 23.1731C27.6443 23.1731 27.5962 23.1731 27.5481 23.1731L21.6346 27.4519C21.6406 27.5301 21.6346 27.6142 21.6346 27.6923C21.6346 32.0012 18.1551 35.4808 13.8462 35.4808C9.85578 35.4808 6.61659 32.476 6.15385 28.6058L0 26.8269L0 32.5C0 36.6407 3.35938 40 7.50001 40L32.5 40C36.6407 40 40 36.6407 40 32.5L40 7.50001C40 3.35938 36.6407 0 32.5 0L7.50001 0ZM27.6923 7.35578C24.1166 7.35578 21.2019 10.2644 21.2019 13.8462C21.2019 17.4279 24.1166 20.3366 27.6923 20.3366C31.268 20.3366 34.1827 17.4279 34.1827 13.8462C34.1827 10.2644 31.268 7.35578 27.6923 7.35578L27.6923 7.35578ZM27.6923 9.32693C30.1803 9.32693 32.2115 11.3582 32.2115 13.8462C32.2115 16.3341 30.1803 18.3654 27.6923 18.3654C25.2104 18.3654 23.1731 16.3341 23.1731 13.8462C23.1731 11.3582 25.2104 9.32693 27.6923 9.32693L27.6923 9.32693ZM13.8462 22.4039C12.5781 22.4039 11.4423 22.8606 10.5289 23.6058L14.4231 24.7116C14.4531 24.7176 14.4892 24.7536 14.5192 24.7596L14.6154 24.7596C15.9255 25.0962 16.875 26.2861 16.875 27.6923C16.875 29.363 15.5168 30.7212 13.8462 30.7212C13.5277 30.7212 13.2212 30.6731 12.9327 30.5769L8.84616 29.4231C9.56131 31.5084 11.5204 32.9808 13.8462 32.9808C16.7789 32.9808 19.1346 30.625 19.1346 27.6923C19.1346 24.7596 16.7789 22.4039 13.8462 22.4039L13.8462 22.4039Z" id="Shape" fill="#FFFFFF" fill-rule="evenodd" stroke="none" />
  </g>
</svg>